# xmcd
#
# Track frame offsets:
#	150
#	11069
#	24831
#	36346
#	46504
#	61134
#	72571
#	85663
#	96604
#	110645
#	122122
#	136197
#	150883
#	162632
#	174355
#
# Disc length: 2511 seconds
#
# Revision: 0
# Processed by: cddbd v1.5.2PL0 Copyright (c) Steve Scherf et al.
# Submitted via: EasyCDDAExtractor 16.0.6.1
#
DISCID=bd09cd0f
DTITLE=Βιολάρης Μιχάλης - Τριάντα μεγάλες επιτυχίες-Μ. Βιολάρης 1
DYEAR=2002
DGENRE=Ελαφρολαϊκή
TTITLE0=Βιολάρης Μιχάλης - Μα μάτια σου Κατερινιώ [Γιώργου Κοντογιώργου-Γιάννη
TTITLE0=Κακουλίδη]
TTITLE1=Βιολάρης Μιχάλης - Στα χείλη μας ακόμα το φιλί [Λίνου Κόκοτου-Αργύρη Β
TTITLE1=εργόπουλου]
TTITLE2=Βιολάρης Μιχάλης - Ποιά γωνιά [Βασίλη Τενίδη-Άκου Δασκαλόπουλου]
TTITLE3=Βιολάρης Μιχάλης - Το χρυσό κλειδί [Λίνου Κόκοτου-Οδυσσέα Ελύτη]
TTITLE4=Βιολάρης Μιχάλης - Το δελφινοκόριτσο [Λίνου Κόκοτου-Οδυσσέα Ελύτη]
TTITLE5=Βιολάρης Μιχάλης - Ήρθες εψές [Γιάννη Σπανού-Σωτήρη Σκίπη]
TTITLE6=Βιολάρης Μιχάλης - Αν βουληθώ, να σ'αρνηθώ [Μίμη Πλέσσα]
TTITLE7=Βιολάρης Μιχάλης - Τα ριάλια [παραδ. Κύπρου, διασκ. Μ. Βιολάρη]
TTITLE8=Βιολάρης Μιχάλης - Τι Λωζάνη, τι Κοζάνη [Γιώργου Κριμιζάκη-Γιάννη Κακο
TTITLE8=υλίδη]
TTITLE9=Βιολάρης Μιχάλης-Χωματά Καίτη - Βάρκα χωρίς πανιά
TTITLE10=Βιολάρης Μιχάλης - Τρεις νέοι [Γιάννη ΣπανούᾹιμιλίας Δάφνη]
TTITLE11=Βιολάρης Μιχάλης - Καλά περνάμε [Γιώργου Κριμιζάκη-Πυθαγόρα]
TTITLE12=Βιολάρης Μιχάλης - Μίλα μου για την άνοιξη [Γιάννη Σπανού-Άκου Δασκαλ
TTITLE12=όπουλου]
TTITLE13=Βιολάρης Μιχάλης - Μην κλαις για μένανε [Γιάννη Σπανού-Λευτέρη Παπαδό
TTITLE13=πουλου]
TTITLE14=Βιολάρης Μιχάλης - Χαλάλιν του [Μιχάλη ΒιολάρηᾹνδρέα Γρηγορίου]
EXTD=
EXTT0=
EXTT1=
EXTT2=
EXTT3=
EXTT4=
EXTT5=
EXTT6=
EXTT7=
EXTT8=
EXTT9=
EXTT10=
EXTT11=
EXTT12=
EXTT13=
EXTT14=
PLAYORDER=
